<svg data-v-423bf9ae="" xmlns="http://www.w3.org/2000/svg" viewBox="0 0 349 90" class="iconLeft"><!----><!----><!----><g data-v-423bf9ae="" id="54c80408-5602-4209-b57d-521ea0d67049" fill="#000000" transform="matrix(5.9055118997155125,0,0,5.9055118997155125,114.09786474978755,-20.90551189971552)"><path d="M5.64 10.72L5.64 10.72L5.64 10.72Q4.89 10.92 4.26 10.86L4.26 10.86L4.26 10.86Q3.64 10.81 3.24 10.56L3.24 10.56L3.24 10.56Q2.84 10.32 2.71 9.91L2.71 9.91L2.71 9.91Q2.58 9.49 2.79 8.97L2.79 8.97L2.79 8.97Q3.22 9.34 3.79 9.37L3.79 9.37L3.79 9.37Q4.37 9.41 4.90 9.35L4.90 9.35L4.90 9.35Q5.35 9.31 5.58 9.16L5.58 9.16L5.58 9.16Q5.81 9.00 5.87 8.80L5.87 8.80L5.87 8.80Q5.92 8.60 5.82 8.37L5.82 8.37L5.82 8.37Q5.73 8.15 5.51 7.97L5.51 7.97L5.51 7.97Q5.29 7.78 4.98 7.67L4.98 7.67L4.98 7.67Q4.66 7.56 4.28 7.57L4.28 7.57L4.28 7.57Q3.88 7.60 3.51 7.77L3.51 7.77L3.51 7.77Q3.15 7.94 2.87 8.23L2.87 8.23L2.87 8.23Q2.59 8.53 2.42 8.92L2.42 8.92L2.42 8.92Q2.25 9.31 2.24 9.79L2.24 9.79L2.24 9.79Q2.23 10.18 2.33 10.56L2.33 10.56L2.33 10.56Q2.44 10.93 2.65 11.25L2.65 11.25L2.65 11.25Q2.86 11.56 3.15 11.78L3.15 11.78L3.15 11.78Q3.44 12.00 3.82 12.05L3.82 12.05L3.82 12.05Q4.35 12.15 4.91 11.98L4.91 11.98L4.91 11.98Q5.47 11.82 5.91 11.37L5.91 11.37L7.38 12.08L7.38 12.08Q6.80 12.94 6.02 13.31L6.02 13.31L6.02 13.31Q5.24 13.68 4.23 13.68L4.23 13.68L4.23 13.68Q3.29 13.68 2.58 13.35L2.58 13.35L2.58 13.35Q1.88 13.02 1.41 12.47L1.41 12.47L1.41 12.47Q0.94 11.93 0.71 11.24L0.71 11.24L0.71 11.24Q0.48 10.54 0.49 9.82L0.49 9.82L0.49 9.82Q0.50 9.10 0.77 8.41L0.77 8.41L0.77 8.41Q1.04 7.71 1.54 7.18L1.54 7.18L1.54 7.18Q2.10 6.58 2.85 6.33L2.85 6.33L2.85 6.33Q3.60 6.08 4.38 6.08L4.38 6.08L4.38 6.08Q5.25 6.08 5.88 6.37L5.88 6.37L5.88 6.37Q6.51 6.66 6.90 7.12L6.90 7.12L6.90 7.12Q7.29 7.57 7.42 8.13L7.42 8.13L7.42 8.13Q7.55 8.68 7.40 9.20L7.40 9.20L7.40 9.20Q7.25 9.72 6.82 10.13L6.82 10.13L6.82 10.13Q6.38 10.54 5.64 10.72ZM10.50 6.29L10.50 7.11L10.50 7.11Q10.61 6.86 10.84 6.68L10.84 6.68L10.84 6.68Q11.06 6.50 11.34 6.38L11.34 6.38L11.34 6.38Q11.62 6.26 11.91 6.19L11.91 6.19L11.91 6.19Q12.21 6.12 12.46 6.10L12.46 6.10L12.46 6.10Q12.99 6.06 13.52 6.24L13.52 6.24L13.52 6.24Q14.04 6.41 14.46 6.85L14.46 6.85L14.46 6.85Q14.59 6.99 14.69 7.13L14.69 7.13L14.69 7.13Q14.80 7.28 14.87 7.46L14.87 7.46L14.87 7.46Q14.91 7.15 15.12 6.91L15.12 6.91L15.12 6.91Q15.33 6.66 15.63 6.49L15.63 6.49L15.63 6.49Q15.93 6.31 16.28 6.22L16.28 6.22L16.28 6.22Q16.63 6.12 16.97 6.10L16.97 6.10L16.97 6.10Q17.51 6.06 18.04 6.24L18.04 6.24L18.04 6.24Q18.56 6.41 19.01 6.85L19.01 6.85L19.01 6.85Q19.64 7.50 19.64 8.74L19.64 8.74L19.64 13.52L17.82 13.52L17.82 13.52Q17.82 13.29 17.82 12.88L17.82 12.88L17.82 12.88Q17.82 12.47 17.82 11.99L17.82 11.99L17.82 11.99Q17.81 11.51 17.81 10.99L17.81 10.99L17.81 10.99Q17.81 10.47 17.79 10.01L17.79 10.01L17.79 10.01Q17.78 9.55 17.76 9.18L17.76 9.18L17.76 9.18Q17.74 8.82 17.71 8.65L17.71 8.65L17.71 8.65Q17.56 7.74 16.69 7.70L16.69 7.70L16.69 7.70Q16.20 7.69 15.87 7.98L15.87 7.98L15.87 7.98Q15.54 8.27 15.55 8.69L15.55 8.69L15.55 8.69Q15.43 8.65 15.30 8.55L15.30 8.55L15.30 8.55Q15.18 8.44 15.08 8.30L15.08 8.30L15.08 8.30Q15.09 8.41 15.09 8.52L15.09 8.52L15.09 8.52Q15.09 8.62 15.09 8.74L15.09 8.74L15.09 13.52L13.30 13.52L13.30 13.52Q13.30 13.29 13.31 12.88L13.31 12.88L13.31 12.88Q13.31 12.47 13.31 11.99L13.31 11.99L13.31 11.99Q13.31 11.51 13.31 10.99L13.31 10.99L13.31 10.99Q13.31 10.47 13.30 10.01L13.30 10.01L13.30 10.01Q13.29 9.55 13.26 9.18L13.26 9.18L13.26 9.18Q13.23 8.82 13.19 8.65L13.19 8.65L13.19 8.65Q13.08 8.20 12.77 7.98L12.77 7.98L12.77 7.98Q12.46 7.76 12.10 7.76L12.10 7.76L12.10 7.76Q11.61 7.76 11.34 8.02L11.34 8.02L11.34 8.02Q11.07 8.27 11.07 8.69L11.07 8.69L11.07 8.69Q10.91 8.64 10.74 8.46L10.74 8.46L10.74 8.46Q10.57 8.29 10.50 8.09L10.50 8.09L10.50 13.52L8.68 13.52L8.68 6.29L10.50 6.29ZM22.86 6.29L22.86 7.11L22.86 7.11Q22.97 6.86 23.20 6.68L23.20 6.68L23.20 6.68Q23.42 6.50 23.70 6.38L23.70 6.38L23.70 6.38Q23.98 6.26 24.28 6.19L24.28 6.19L24.28 6.19Q24.57 6.12 24.82 6.10L24.82 6.10L24.82 6.10Q25.35 6.06 25.88 6.24L25.88 6.24L25.88 6.24Q26.40 6.41 26.82 6.85L26.82 6.85L26.82 6.85Q26.95 6.99 27.05 7.13L27.05 7.13L27.05 7.13Q27.16 7.28 27.23 7.46L27.23 7.46L27.23 7.46Q27.27 7.15 27.48 6.91L27.48 6.91L27.48 6.91Q27.69 6.66 27.99 6.49L27.99 6.49L27.99 6.49Q28.29 6.31 28.64 6.22L28.64 6.22L28.64 6.22Q28.99 6.12 29.33 6.10L29.33 6.10L29.33 6.10Q29.88 6.06 30.40 6.24L30.40 6.24L30.40 6.24Q30.93 6.41 31.37 6.85L31.37 6.85L31.37 6.85Q32.00 7.50 32.00 8.74L32.00 8.74L32.00 13.52L30.18 13.52L30.18 13.52Q30.18 13.29 30.18 12.88L30.18 12.88L30.18 12.88Q30.18 12.47 30.18 11.99L30.18 11.99L30.18 11.99Q30.17 11.51 30.17 10.99L30.17 10.99L30.17 10.99Q30.17 10.47 30.16 10.01L30.16 10.01L30.16 10.01Q30.14 9.55 30.12 9.18L30.12 9.18L30.12 9.18Q30.10 8.82 30.07 8.65L30.07 8.65L30.07 8.65Q29.92 7.74 29.05 7.70L29.05 7.70L29.05 7.70Q28.56 7.69 28.23 7.98L28.23 7.98L28.23 7.98Q27.90 8.27 27.92 8.69L27.92 8.69L27.92 8.69Q27.79 8.65 27.66 8.55L27.66 8.55L27.66 8.55Q27.54 8.44 27.44 8.30L27.44 8.30L27.44 8.30Q27.45 8.41 27.45 8.52L27.45 8.52L27.45 8.52Q27.45 8.62 27.45 8.74L27.45 8.74L27.45 13.52L25.66 13.52L25.66 13.52Q25.66 13.29 25.67 12.88L25.67 12.88L25.67 12.88Q25.68 12.47 25.68 11.99L25.68 11.99L25.68 11.99Q25.68 11.51 25.68 10.99L25.68 10.99L25.68 10.99Q25.68 10.47 25.66 10.01L25.66 10.01L25.66 10.01Q25.65 9.55 25.62 9.18L25.62 9.18L25.62 9.18Q25.59 8.82 25.55 8.65L25.55 8.65L25.55 8.65Q25.44 8.20 25.13 7.98L25.13 7.98L25.13 7.98Q24.82 7.76 24.46 7.76L24.46 7.76L24.46 7.76Q23.97 7.76 23.70 8.02L23.70 8.02L23.70 8.02Q23.44 8.27 23.44 8.69L23.44 8.69L23.44 8.69Q23.27 8.64 23.10 8.46L23.10 8.46L23.10 8.46Q22.93 8.29 22.86 8.09L22.86 8.09L22.86 13.52L21.04 13.52L21.04 6.29L22.86 6.29ZM35.98 16.24L35.98 16.24L35.98 16.24Q35.29 16.24 34.71 16.06L34.71 16.06L34.71 16.06Q34.13 15.88 33.75 15.52L33.75 15.52L33.75 15.52Q33.38 15.16 33.24 14.62L33.24 14.62L33.24 14.62Q33.11 14.07 33.32 13.36L33.32 13.36L33.32 13.36Q33.49 13.66 33.76 13.90L33.76 13.90L33.76 13.90Q34.03 14.13 34.37 14.28L34.37 14.28L34.37 14.28Q34.71 14.43 35.07 14.51L35.07 14.51L35.07 14.51Q35.43 14.59 35.78 14.57L35.78 14.57L35.78 14.57Q36.79 14.53 37.32 14.05L37.32 14.05L37.32 14.05Q37.86 13.57 37.86 12.54L37.86 12.54L37.86 12.54Q37.76 12.81 37.52 13.01L37.52 13.01L37.52 13.01Q37.28 13.20 36.99 13.34L36.99 13.34L36.99 13.34Q36.69 13.47 36.39 13.54L36.39 13.54L36.39 13.54Q36.08 13.61 35.83 13.62L35.83 13.62L35.83 13.62Q35.29 13.65 34.78 13.48L34.78 13.48L34.78 13.48Q34.26 13.31 33.84 12.88L33.84 12.88L33.84 12.88Q33.21 12.24 33.21 11.00L33.21 11.00L33.21 6.26L34.99 6.26L34.99 6.26Q34.99 6.50 34.98 6.90L34.98 6.90L34.98 6.90Q34.97 7.29 34.97 7.78L34.97 7.78L34.97 7.78Q34.97 8.26 34.97 8.77L34.97 8.77L34.97 8.77Q34.97 9.28 34.99 9.74L34.99 9.74L34.99 9.74Q35 10.21 35.03 10.56L35.03 10.56L35.03 10.56Q35.06 10.92 35.10 11.09L35.10 11.09L35.10 11.09Q35.21 11.54 35.52 11.76L35.52 11.76L35.52 11.76Q35.83 11.98 36.19 11.98L36.19 11.98L36.19 11.98Q36.43 11.98 36.64 11.91L36.64 11.91L36.64 11.91Q36.85 11.83 37.01 11.69L37.01 11.69L37.01 11.69Q37.17 11.55 37.27 11.38L37.27 11.38L37.27 11.38Q37.37 11.20 37.37 10.99L37.37 10.99L37.37 10.99Q37.72 11.09 37.86 11.48L37.86 11.48L37.86 6.26L39.66 6.26L39.66 12.64L39.66 12.64Q39.66 14.29 38.73 15.27L38.73 15.27L38.73 15.27Q37.80 16.24 35.98 16.24Z"></path></g><defs data-v-423bf9ae=""><linearGradient data-v-423bf9ae="" gradientTransform="rotate(25)" id="1404e997-ef26-4672-87f1-02729ae94abb" x1="0%" y1="0%" x2="100%" y2="0%"><stop data-v-423bf9ae="" offset="0%" style="stop-color: rgb(180, 55, 61); stop-opacity: 1;"></stop><stop data-v-423bf9ae="" offset="100%" style="stop-color: rgb(178, 58, 203); stop-opacity: 1;"></stop></linearGradient></defs><g data-v-423bf9ae="" id="35cc8569-77a6-451b-9107-78215a44bbe8" transform="matrix(1.1258240413205276,0,0,1.1258240413205276,-8.455380470465997,-11.317878126027566)" stroke="none" fill="url(#1404e997-ef26-4672-87f1-02729ae94abb)"><path d="M72.5 59.6c.8 1.7 1.6 3.4 2.3 5.2 1.5 3.5 2.7 7.1 3.3 10.9.4 2.3.5 4.6-.2 6.9-.7 2.4-2.5 3.7-5 3.7-2.3 0-4.3-.8-6.3-1.8-1.7-.9-3.4-2-5.1-3.1-.7-.5-1.3-.6-2.2-.3-2.7 1-5.7-1.7-5.3-4.5.2-1.2.1-1.4-1-2.2-.1.2-.3.4-.4.6-2.4 3.5-5 6.9-8 9.9-1.9 1.8-3.9 3.6-6.3 4.7-1.2.5-2.4.9-3.7.8-2-.1-3.3-1.3-4.1-2.9-.9-1.7-1.2-3.6-1.4-5.5-.4-5.3.4-10.4 1.6-15.5.1-.4.2-.8.3-1.3-.2 0-.4-.1-.6-.1-4.7-.2-9.4-.8-14-2.1-2.1-.6-4.1-1.4-5.9-2.7-.5-.4-1-.8-1.4-1.2-1.7-1.9-1.9-4-.7-6.2 1.1-1.9 2.7-3.3 4.5-4.5 1.7-1.1 3.5-2.1 5.3-3.1.4-.2.5-.4.6-.9.1-1.7.9-2.9 2.5-3.6 1.6-.7 3.1-.5 4.4.6.5.4.9.5 1.5.3.3-.2.7-.3 1.1-.3.4-.1.5-.3.3-.7-1.6-3.2-3-6.5-4.1-10-.9-2.8-1.6-5.7-1.7-8.7 0-1.3.1-2.6.5-3.8.8-2.7 3.1-4.1 6-3.7 3 .4 5.6 1.8 8.2 3.3 3.7 2.3 6.9 5.1 10.1 8l.6.6c.9-1.2 1.7-2.4 2.6-3.6 2.3-3.1 4.8-6 7.7-8.5 1.7-1.4 3.4-2.7 5.5-3.4.9-.3 1.8-.5 2.7-.4 2.6.1 3.9 1.9 4.7 4.1.7 2 .9 4 .9 6.1 0 1.6-.1 3.2-.2 4.7 0 .2.2.5.4.6 1 .6 1.6 1.5 1.9 2.6.6 2.2-.8 4.5-3 5.1-.5.1-.8.3-.8.8 0 .2-.1.4-.2.6-.2.6-.1.6.5.6 4 .2 7.9.6 11.8 1.5 2.7.6 5.3 1.5 7.7 3 1.3.8 2.4 1.8 3 3.2.6 1.5.5 2.9-.3 4.3-1 1.8-2.4 3.2-4 4.4-3.2 2.4-6.8 4.1-10.6 5.5-2 .6-4 1.3-6 2zM24.6 20.3c.1 1.7.4 3.3.9 4.9 1.4 5 3.6 9.7 6 14.4.2.4.5.4.9.3 2.8-.7 5.7-1.3 8.5-2 .3-.1.6-.3.7-.6 1.5-2.7 3-5.4 4.6-8.1.2-.4.2-.6-.1-.9-2-1.9-3.9-3.8-5.9-5.6-2.4-2.1-4.8-4-7.7-5.5-1.4-.7-2.7-1.3-4.3-1.4-1.5-.1-2.6.6-3.1 1.9-.3.9-.4 1.7-.5 2.6zm46.5 18.2h-1.2c-.4 0-.5.2-.7.5-1 3-1.9 6-2.9 9-.1.4-.1.7.1 1.1 1.4 2.4 2.9 4.8 4.3 7.2.3.5.5.6 1 .4 3-1 6-1.9 9-3s5.9-2.5 8.5-4.4c1-.7 1.8-1.5 2.5-2.5.8-1.4.7-2.7-.4-3.8-.2-.2-.5-.4-.7-.6-1.3-.9-2.8-1.5-4.3-1.9-5.1-1.5-10.1-1.8-15.2-2zM31.3 81.7c0 .6.1 1.6.2 2.7.2 1.1.5 2.2 1.2 3.1.7.9 1.6 1.2 2.6 1.1 1.3-.1 2.4-.8 3.4-1.5 2.1-1.5 3.9-3.5 5.5-5.4 2.4-2.9 4.5-6 6.6-9.2.2-.3.2-.5 0-.7-2-2.3-4.1-4.6-6.1-6.8-.2-.2-.5-.3-.7-.3-3.1.1-6.1.2-9.2.3-.5 0-.8.1-.9.6l-1.2 4.8c-.8 3.6-1.3 7.2-1.4 11.3zm45.3-1.3c-.1-2-.4-3.7-.9-5.4-1.4-5-3.6-9.7-6-14.2-.2-.3-.4-.3-.7-.3-2.9.7-5.8 1.3-8.7 2-.2.1-.5.2-.6.4-1.6 2.8-3.1 5.6-4.7 8.3-.2.3-.1.5.1.7l.9.9c.2.3.5.3.8.2.5-.2 1-.3 1.5-.4 2.2-.2 5 2.2 4.1 5.2-.2.6 0 1 .4 1.3 1.3.9 2.5 1.8 3.7 2.7 1.7 1.2 3.6 2.1 5.6 2.6 2.2.5 3.8-.5 4.2-2.7.3-.5.3-1 .3-1.3zM29.9 61.9h1.6c.3 0 .5-.1.5-.4l3-9.3c.1-.2 0-.5-.1-.7-1.5-2.6-3-5.1-4.5-7.7-.2-.3-.3-.3-.6-.3-.6.2-1.2.3-1.8.5-.5.1-.9.4-.9 1-.1 1-.6 1.8-1.3 2.4-1.7 1.4-3.9 1.4-5.6-.1-.2-.2-.4-.4-.8-.2-2.5 1.1-4.9 2.2-7.1 3.8-1.1.8-2 1.6-2.7 2.8-.8 1.4-.6 2.7.5 3.8.5.5 1.1.9 1.6 1.2 1.6.9 3.4 1.4 5.3 1.8 4.3 1 8.6 1.2 12.9 1.4zm34.2-26.5c0 .1 0 .1 0 0 .9.1 1.7 0 2.5.1.3 0 .5-.1.5-.4.1-.6.3-1.1.5-1.7.1-.4 0-.6-.3-.9-2.5-2-1.7-6.2 1.5-7.1.4-.1.5-.3.6-.7.3-2.7.6-5.4.3-8.1-.1-1.3-.4-2.5-1.1-3.6-.7-1-1.7-1.5-2.9-1.3-1 .2-1.9.6-2.7 1.2-1.7 1.1-3.1 2.5-4.4 3.9-3.2 3.4-5.8 7.2-8.3 11.1-.2.3-.1.5.1.8 1.9 2.1 3.7 4.1 5.5 6.2.5.6 1 .9 1.8.8 2.2-.1 4.3-.2 6.4-.3zm-18 25.9c1.3-.2 2.6-.3 3.8-.4 2.5-.3 5-.7 7.5-1 .4 0 .6-.2.7-.5 1.5-3.3 2.9-6.6 4.4-10 .1-.2 0-.6-.1-.8-.5-.8-1-1.6-1.6-2.3-1.5-2-3-4.1-4.4-6.1-.5-.8-1.2-1.1-2.2-1-1.7.2-3.5.4-5.2.6-1.6.2-3.1.5-4.7.7-.4.1-.7.1-.9.5-1.5 3.3-3 6.7-4.4 10-.1.2-.1.6.1.7 2.2 3.1 4.5 6.1 6.7 9.2-.1.3.2.4.3.4zm-8.8-6.2c-.8 2.3-1.5 4.5-2.3 6.9 2.4-.1 4.7-.2 7.1-.3-1.7-2.3-3.2-4.4-4.8-6.6zM64 45.3c.8-2.3 1.5-4.5 2.3-6.8-2.4.1-4.7.2-7.1.3 1.6 2.2 3.2 4.3 4.8 6.5zM52.7 69.4c1.1-2.1 2.2-4.1 3.4-6.1-2.7.4-5.2.7-7.8 1 1.4 1.7 2.9 3.4 4.4 5.1zM48.5 31c-1.1 2.1-2.2 4.1-3.4 6.1 2.7-.3 5.2-.7 7.8-1-1.4-1.7-2.8-3.4-4.4-5.1zm-9 10.4h-.3l-5.4 1.2c-.4.1-.5.2-.3.6.9 1.5 1.9 3.1 2.8 4.6l.3.3c1-2.2 1.9-4.4 2.9-6.7zm25.2 10.8l-3 6.9c2.1-.5 4.2-.9 6.3-1.4-1.1-1.9-2.2-3.7-3.3-5.5z"></path><path d="M43.7 50.2c0-3.8 3.1-6.9 6.9-6.9 3.9 0 7 3.1 7 7s-3 6.9-6.9 6.9c-4.3 0-7-3.3-7-7z"></path></g><!----></svg>